PathFileType	4	(X/Y/Z)	Kaydara																																																																																																																									
DataRate	CameraRate	NumFrames	NumMarkers	Units	OrigDataRate	OrigDataStartFrame	OrigNumFrames																																																																																																																					
30	30	6	41	mm	30	67	176																																																																																																																					
Frame#	Time	SALE_LFHD			SALE_RFHD			SALE_LBHD			SALE_RBHD			SALE_LFTShould			SALE_RFTShould			SALE_LRRShould			SALE_RRRShould			SALE_T10			SALE_STRN			SALE_TRUN			SALE_LSHO			SALE_LUPA			SALE_LELB			SALE_LFRM			SALE_LWRA			SALE_LWRB			SALE_LFIN			SALE_RSHO			SALE_RUPA			SALE_RELB			SALE_RFRM			SALE_RWRB			SALE_RFIN			SALE_LFWT			SALE_RFWT			SALE_LBWT			SALE_RBWT			SALE_LTHI			SALE_LKNE			SALE_RWRA			SALE_LSHN			SALE_LANK			SALE_LHEE			SALE_LTOE			SALE_RTHI			SALE_RKNE			SALE_RSHN			SALE_RANK			SALE_RHEE			SALE_RTOE		
		X1	Y1	Z1	X2	Y2	Z2	X3	Y3	Z3	X4	Y4	Z4	X5	Y5	Z5	X6	Y6	Z6	X7	Y7	Z7	X8	Y8	Z8	X9	Y9	Z9	X10	Y10	Z10	X11	Y11	Z11	X12	Y12	Z12	X13	Y13	Z13	X14	Y14	Z14	X15	Y15	Z15	X16	Y16	Z16	X17	Y17	Z17	X18	Y18	Z18	X19	Y19	Z19	X20	Y20	Z20	X21	Y21	Z21	X22	Y22	Z22	X23	Y23	Z23	X24	Y24	Z24	X25	Y25	Z25	X26	Y26	Z26	X27	Y27	Z27	X28	Y28	Z28	X29	Y29	Z29	X30	Y30	Z30	X31	Y31	Z31	X32	Y32	Z32	X33	Y33	Z33	X34	Y34	Z34	X35	Y35	Z35	X36	Y36	Z36	X37	Y37	Z37	X38	Y38	Z38	X39	Y39	Z39	X40	Y40	Z40	X41	Y41	Z41
																																																																																																																												
67	2.21	226.93918	1651.38641	-1981.07346	225.98753	1641.45889	-2116.409	94.90252	1648.66364	-1984.35043	98.97085	1637.19635	-2112.25128	241.73319	1395.54504	-2030.43671	98.6894	1392.77496	-2030.19196	232.79507	1443.32916	-2147.49954	83.27017	1448.63617	-2140.68558	157.19305	1287.53387	-2203.0278	165.2924	1326.43158	-1977.164	162.39508	1243.36441	-1930.35431	354.1441	1415.625	-2106.01685	393.31589	1200.45151	-2122.95868	377.24022	1091.96815	-2139.27322	414.22939	988.20213	-2117.36053	370.44003	848.19748	-2042.90314	427.36797	843.24547	-2093.18207	434.27258	799.68246	-2045.02914	-8.78072	1417.56195	-2096.94733	-36.27209	1187.40089	-2156.20316	-75.27209	1089.90921	-2114.18335	-70.23996	976.595	-2119.41238	-101.20951	841.34583	-2074.27704	-121.3654	805.53734	-2019.07501	290.35299	975.71228	-1987.73941	11.27768	974.27803	-2008.84094	242.48886	1044.57886	-2156.47003	66.14285	1048.2444	-2170.03937	294.1268	676.71761	-2156.06964	278.76652	504.795	-2081.66962	-67.04419	855.54413	-2010.4866	274.15928	308.05868	-2084.53903	269.66633	124.55176	-2135.14862	230.55603	75.60358	-2198.91693	243.56976	86.83669	-2002.04559	9.44533	722.81097	-2164.06128	34.20554	563.89904	-2059.51126	86.681	374.73717	-2076.36444	40.57437	122.93058	-2130.84595	83.33404	61.72785	-2204.12201	56.22953	79.30417	-2012.22046
68	2.243	226.65762	1651.35849	-1978.98834	225.65338	1641.49414	-2114.34204	94.78323	1648.76663	-1982.1875	98.62855	1637.4678	-2110.11612	241.39492	1395.86395	-2028.6734	98.24934	1393.09906	-2028.16071	232.3061	1443.36014	-2145.83221	82.73572	1448.72894	-2138.77304	156.63794	1287.45377	-2200.89661	164.94604	1326.77429	-1975.20996	162.04206	1243.6673	-1928.34641	353.62453	1415.55161	-2104.51935	392.66193	1200.35049	-2121.81717	376.48067	1091.85371	-2138.09616	413.38501	987.96722	-2116.26236	369.72885	847.95044	-2041.93954	426.49414	843.0368	-2092.30392	433.54034	799.49242	-2044.39133	-9.29021	1417.565	-2094.98428	-36.14673	1187.26173	-2154.26117	-74.95452	1089.70627	-2112.31781	-69.57907	976.41167	-2117.5885	-100.02052	841.07803	-2072.58499	-120.26481	805.09781	-2017.44095	289.82609	975.68474	-1986.41266	10.8082	974.32953	-2007.90649	242.35218	1044.82231	-2154.9588	66.09248	1048.48885	-2168.9505	294.2268	676.72081	-2154.6022	278.6281	504.79939	-2080.30228	-66.2472	855.12993	-2008.81012	274.15308	307.86732	-2083.5997	269.82061	124.63624	-2134.71008	230.82378	75.6709	-2198.94135	243.69011	86.90946	-2002.12845	9.6571	722.8054	-2162.54303	36.20442	565.34714	-2058.05283	87.7902	374.35764	-2074.29459	40.88576	123.01562	-2129.85901	83.36611	61.72962	-2204.19495	56.35845	79.40383	-2012.28287
69	2.277	226.11868	1651.5921	-1976.54968	225.23954	1641.77917	-2111.92047	94.41613	1649.22546	-1979.70337	98.1988	1637.90756	-2107.73788	240.58678	1396.67419	-2026.01913	97.6797	1393.80966	-2025.54489	231.7169	1443.78159	-2143.60687	82.07137	1449.15909	-2136.3414	156.10502	1287.65823	-2198.26035	164.44695	1327.40402	-1972.35641	161.5999	1244.10263	-1925.92392	353.22456	1416.12854	-2102.29156	391.63357	1200.85007	-2120.15991	375.35091	1092.38091	-2136.30341	412.22237	988.39119	-2114.61548	368.36773	848.46565	-2040.0679	425.14011	843.50471	-2090.56747	432.35882	800.03067	-2042.60178	-9.89217	1417.96631	-2092.42416	-36.28983	1187.73682	-2151.87561	-74.75828	1089.96094	-2109.96674	-69.02124	976.6983	-2115.47653	-98.99883	841.26205	-2070.76431	-119.04305	804.98779	-2015.61188	288.99258	976.06766	-1984.82101	10.24974	975.09735	-2007.15363	242.06915	1045.06081	-2153.37158	66.05519	1048.83156	-2168.13782	294.40104	676.86684	-2152.89215	278.63174	505.53627	-2077.62268	-65.22971	855.17242	-2006.95648	274.0691	307.63639	-2082.45331	270.10386	124.76514	-2134.41101	231.12051	75.62941	-2199.16504	243.88802	87.11626	-2002.42477	10.29571	722.99545	-2160.59128	38.46448	567.68955	-2054.66721	89.21375	373.78448	-2071.53564	41.18047	123.17381	-2129.0564	83.2937	61.6007	-2204.44229	56.46523	79.72573	-2012.55981
70	2.31	225.55698	1652.3143	-1973.64319	224.60838	1643.0072	-2109.0535	93.77506	1650.00763	-1976.76575	97.55694	1639.19159	-2104.76227	239.86685	1398.62274	-2022.5798	96.8516	1395.19348	-2022.22198	230.89275	1444.82422	-2140.67108	81.31401	1450.08301	-2133.23822	155.44782	1288.42407	-2195.02243	163.80205	1328.8707	-1968.40836	161.09604	1245.06004	-1922.80273	352.66628	1417.60696	-2098.72116	390.79411	1202.41135	-2117.43011	374.2202	1094.0078	-2133.72604	410.83885	989.79607	-2111.97296	366.66561	849.85367	-2037.33337	423.29781	844.91119	-2087.81586	430.23525	801.3678	-2039.59366	-10.78611	1419.02771	-2089.16412	-36.76165	1188.73924	-2148.8266	-74.79387	1090.79811	-2107.0694	-68.74868	977.63893	-2112.95731	-97.92318	842.10983	-2068.71338	-117.63427	805.3334	-2013.55576	287.92995	976.90002	-1982.96463	9.02874	975.86792	-2007.12601	241.44341	1045.16373	-2151.94916	66.08366	1048.82919	-2167.91962	294.33811	677.11136	-2150.77972	278.24682	506.0915	-2075.2681	-63.90206	855.86479	-2004.94385	274.03458	307.45365	-2081.09695	270.28336	124.84357	-2134.1716	231.46675	75.59029	-2199.22928	244.00461	87.26954	-2002.60345	10.94243	722.47009	-2157.26654	42.53116	569.26868	-2047.73315	92.78006	372.25483	-2065.98541	41.61967	123.40996	-2127.73163	83.25254	61.65021	-2204.46198	57.09195	80.27997	-2012.61993
71	2.343	224.63995	1652.9541	-1970.25574	223.6684	1644.30191	-2105.69687	92.96156	1650.858	-1973.39722	96.59039	1640.70938	-2101.50848	239.01979	1400.91736	-2018.72192	96.10991	1396.79382	-2018.16483	229.91238	1446.23581	-2136.94183	80.52416	1451.11115	-2129.53384	154.82076	1289.46503	-2191.01013	163.08388	1331.19644	-1963.82721	160.44418	1247.03735	-1918.07785	351.65241	1420.09583	-2094.62494	390.06775	1205.13809	-2113.47961	373.23963	1096.7791	-2130.15839	409.52194	992.34062	-2108.36731	364.82693	852.88994	-2033.69873	421.43288	847.31087	-2084.20776	428.08449	803.5759	-2036.11252	-11.54944	1420.53787	-2085.1767	-37.55136	1190.71243	-2145.1857	-75.00142	1092.31339	-2103.6499	-68.58464	979.15802	-2110.03799	-97.11311	843.41843	-2066.45615	-116.36719	806.07391	-2011.35056	286.83393	977.70515	-1983.01422	7.46488	975.78766	-2007.14737	240.40924	1044.97787	-2150.88409	65.69988	1047.98615	-2167.70615	293.75137	677.29553	-2148.5257	278.12473	507.08527	-2072.0697	-62.68688	856.71036	-2002.6593	273.87608	307.37907	-2079.5192	270.44436	124.8604	-2133.58521	231.70214	75.66711	-2199.29581	244.07526	87.36137	-2002.69058	11.18429	720.38071	-2152.76978	45.56519	569.12846	-2040.73868	95.34409	370.96607	-2061.36765	42.30985	123.54726	-2126.69708	83.3893	61.66175	-2204.44977	58.19187	80.93714	-2012.72125
72	2.377	223.29117	1653.85223	-1966.28113	222.31251	1645.31036	-2101.69449	91.52486	1651.86691	-1969.48914	95.24641	1641.82587	-2097.58926	237.8244	1403.04153	-2013.82492	94.96322	1398.45703	-2013.7175	228.83204	1447.62024	-2132.59155	79.61658	1452.02545	-2125.20264	153.98089	1290.37857	-2186.00815	161.94252	1333.48007	-1958.34656	159.48149	1249.06181	-1912.73483	350.68428	1422.21802	-2089.27811	389.57859	1207.68929	-2108.36349	372.47601	1099.4323	-2125.5954	408.44612	994.72	-2103.45154	363.13408	855.5648	-2029.15192	419.93057	849.69368	-2079.51157	425.73795	805.50453	-2031.27914	-12.65834	1421.90872	-2080.74051	-38.38702	1192.48535	-2140.95947	-75.45692	1093.67523	-2099.70825	-68.81474	980.57747	-2106.64658	-96.83103	844.7126	-2063.73611	-115.48557	806.71494	-2008.62106	286.92091	978.55453	-1982.32117	6.54019	975.59647	-2006.2616	238.97106	1045.01678	-2149.60739	64.84178	1047.37144	-2166.43021	292.79249	677.39334	-2146.32797	277.53536	508.62423	-2067.67151	-62.30158	857.48962	-1999.93729	273.39134	307.19816	-2077.74826	270.47998	125.14895	-2133.35571	231.86317	75.72017	-2199.34158	244.00434	87.4863	-2002.79266	11.17156	719.06448	-2149.52728	45.97564	569.03988	-2037.45087	95.61131	370.36526	-2058.591	42.34558	123.6178	-2126.72775	83.34574	61.45728	-2204.71832	58.27162	81.5611	-2013.17581
